<?xml version="1.0" encoding="utf-8"?>
<!-- Generator: Adobe Illustrator 24.2.2, SVG Export Plug-In . SVG Version: 6.00 Build 0)  -->
<svg version="1.1" id="Capa_1" xmlns="http://www.w3.org/2000/svg" xmlns:xlink="http://www.w3.org/1999/xlink" x="0px" y="0px"
	 viewBox="0 0 1060 806" style="enable-background:new 0 0 1060 806;" xml:space="preserve">
<style type="text/css">
	.st0{fill:#CCCCCC;}
	.st1{fill:none;stroke:#000000;stroke-linecap:square;stroke-miterlimit:10;}
	.st2{fill:#8C2A86;}
	.st3{fill:none;stroke:#000000;stroke-width:0.5002;stroke-linecap:square;stroke-miterlimit:10;}
	.st4{fill:#B81731;stroke:#D0103A;stroke-width:6;stroke-miterlimit:10;}
	.st5{fill:#D0103A;stroke:#0C682F;stroke-width:3;stroke-miterlimit:10;}
	.st6{fill:#D0103A;}
	.st7{fill:#FFFFFF;}
	.st8{fill:none;stroke:#000000;stroke-miterlimit:10;}
	.st9{fill:none;stroke:#000000;stroke-width:0.5;stroke-miterlimit:10;}
	.st10{font-family:'MyriadPro-Regular';}
	.st11{font-size:20.7465px;}
	.st12{fill:none;stroke:#0C682F;stroke-miterlimit:10;}
	.st13{fill:none;stroke:#0C682F;stroke-width:4;stroke-miterlimit:10;}
	.st14{fill:#959696;}
	.st15{fill:#284093;stroke:#0C682F;stroke-width:6;stroke-miterlimit:10;}
	.st16{fill:url(#SVGID_1_);}
	.st17{fill:none;stroke:#284093;stroke-miterlimit:10;}
	.st18{fill:none;stroke:#284093;stroke-miterlimit:10;stroke-dasharray:8.1051,8.1051;}
	.st19{fill:url(#SVGID_2_);}
	.st20{fill:none;stroke:#284093;stroke-miterlimit:10;stroke-dasharray:7.829,7.829;}
	.st21{fill:#303D91;}
	.st22{font-family:'SymbolMT';}
	.st23{font-size:25.7947px;}
	.st24{font-size:22.9076px;}
</style>
<polygon class="st0" points="27.59,432.46 49.07,395.2 49.07,395.2 "/>
<polygon class="st0" points="79.36,431.19 100.84,393.94 100.84,393.94 "/>
<line class="st1" x1="104.81" y1="393.64" x2="149.79" y2="393.82"/>
<line class="st1" x1="100.84" y1="393.94" x2="79.36" y2="431.19"/>
<line class="st1" x1="100.84" y1="393.94" x2="74.11" y2="353.62"/>
<polygon class="st2" points="106.31,395.04 105.37,392.15 102.91,390.36 99.87,390.36 97.42,392.15 96.48,395.04 97.42,397.94 
	99.87,399.72 102.91,399.72 105.37,397.94 106.31,395.04 "/>
<polygon class="st0" points="938.9,111.1 960.38,73.85 960.38,73.85 "/>
<line class="st1" x1="964.35" y1="73.55" x2="1009.33" y2="73.73"/>
<line class="st1" x1="960.38" y1="73.85" x2="938.9" y2="111.1"/>
<line class="st1" x1="960.38" y1="73.85" x2="933.65" y2="33.53"/>
<polygon class="st2" points="967.4,74.37 966.46,71.48 964,69.69 960.97,69.69 958.51,71.48 957.57,74.37 958.51,77.27 
	960.97,79.05 964,79.05 966.46,77.27 967.4,74.37 "/>
<polygon class="st0" points="375.55,399.38 507.4,627.75 507.4,171 "/>
<polygon class="st0" points="507.4,627.75 771.1,627.75 507.4,171 "/>
<polygon class="st0" points="507.4,171 771.1,627.75 771.1,171 "/>
<polygon class="st0" points="771.1,171 771.1,627.75 902.96,399.38 "/>
<polygon class="st0" points="771.1,627.75 902.96,399.38 902.96,399.38 "/>
<polyline class="st3" points="902.96,399.38 771.1,171 507.4,171 375.55,399.38 507.4,627.75 771.1,627.75 902.96,399.38 
	902.96,399.38 "/>
<polygon class="st4" points="400.29,399.38 399.59,397.22 397.76,395.89 395.49,395.89 393.66,397.22 392.96,399.38 393.66,401.53 
	395.49,402.86 397.76,402.86 399.59,401.53 400.29,399.38 "/>
<polygon class="st4" points="452.79,399.38 452.09,397.22 450.26,395.89 447.99,395.89 446.16,397.22 445.46,399.38 446.16,401.53 
	447.99,402.86 450.26,402.86 452.09,401.53 452.79,399.38 "/>
<polygon class="st4" points="506.04,399.38 505.34,397.22 503.51,395.89 501.24,395.89 499.41,397.22 498.71,399.38 499.41,401.53 
	501.24,402.86 503.51,402.86 505.34,401.53 506.04,399.38 "/>
<polygon class="st5" points="560.33,398.54 559.46,395.87 557.18,394.22 554.36,394.22 552.08,395.87 551.21,398.54 552.08,401.21 
	554.36,402.86 557.18,402.86 559.46,401.21 560.33,398.54 "/>
<polygon class="st4" points="611.04,399.38 610.34,397.22 608.51,395.89 606.24,395.89 604.41,397.22 603.71,399.38 604.41,401.53 
	606.24,402.86 608.51,402.86 610.34,401.53 611.04,399.38 "/>
<polygon class="st4" points="664.29,399.38 663.59,397.22 661.76,395.89 659.49,395.89 657.66,397.22 656.96,399.38 657.66,401.53 
	659.49,402.86 661.76,402.86 663.59,401.53 664.29,399.38 "/>
<polygon class="st6" points="716.79,399.38 716.09,397.22 714.26,395.89 711.99,395.89 710.16,397.22 709.46,399.38 710.16,401.53 
	711.99,402.86 714.26,402.86 716.09,401.53 716.79,399.38 "/>
<polygon class="st4" points="769.29,399.38 768.59,397.22 766.76,395.89 764.49,395.89 762.66,397.22 761.96,399.38 762.66,401.53 
	764.49,402.86 766.76,402.86 768.59,401.53 769.29,399.38 "/>
<polygon class="st4" points="822.54,399.38 821.84,397.22 820.01,395.89 817.74,395.89 815.91,397.22 815.21,399.38 815.91,401.53 
	817.74,402.86 820.01,402.86 821.84,401.53 822.54,399.38 "/>
<polygon class="st4" points="885.54,399.38 884.84,397.22 883.01,395.89 880.74,395.89 878.91,397.22 878.21,399.38 878.91,401.53 
	880.74,402.86 883.01,402.86 884.84,401.53 885.54,399.38 "/>
<g>
	<line class="st7" x1="379.65" y1="662" x2="899.75" y2="662"/>
	<g>
		<line class="st8" x1="390.28" y1="662" x2="889.12" y2="662"/>
		<g>
			<polygon points="392.65,665.49 379.65,662 392.65,658.51 			"/>
		</g>
		<g>
			<polygon points="886.74,665.49 899.75,662 886.74,658.51 			"/>
		</g>
	</g>
</g>
<line class="st9" x1="375.55" y1="399.38" x2="375.55" y2="662"/>
<line class="st9" x1="902.96" y1="399.38" x2="902.96" y2="662"/>
<text transform="matrix(1.0159 0 0 1 609.8633 682.0488)" class="st10 st11">250 m</text>
<polygon class="st0" points="941.56,766.7 963.04,729.44 963.04,729.44 "/>
<line class="st1" x1="967.01" y1="729.14" x2="1012" y2="729.32"/>
<line class="st1" x1="963.04" y1="729.44" x2="941.56" y2="766.7"/>
<line class="st1" x1="963.04" y1="729.44" x2="936.32" y2="689.12"/>
<polygon class="st2" points="970.07,731.15 969.13,728.26 966.67,726.47 963.64,726.47 961.18,728.26 960.24,731.15 961.18,734.05 
	963.64,735.83 966.67,735.83 969.13,734.05 970.07,731.15 "/>
<polygon class="st2" points="375.67,398.95 373.72,392.94 368.62,389.23 362.31,389.23 357.2,392.94 355.25,398.95 357.2,404.96 
	362.31,408.67 368.62,408.67 373.72,404.96 375.67,398.95 "/>
<polygon class="st12" points="558.54,399.38 557.84,397.22 556.01,395.89 553.74,395.89 551.91,397.22 551.21,399.38 551.91,401.53 
	553.74,402.86 556.01,402.86 557.84,401.53 558.54,399.38 "/>
<polygon class="st13" points="718,399.43 717.09,396.69 714.7,395 711.76,395 709.37,396.69 708.46,399.43 709.37,402.17 
	711.76,403.86 714.7,403.86 717.09,402.17 718,399.43 "/>
<polygon class="st14" points="548.04,337.88 547.34,335.72 545.51,334.39 543.24,334.39 541.41,335.72 540.71,337.88 541.41,340.03 
	543.24,341.36 545.51,341.36 547.34,340.03 548.04,337.88 "/>
<polyline class="st14" points="505.34,270.47 503.51,269.14 501.24,269.14 "/>
<polygon class="st15" points="705.54,312.38 704.84,310.22 703.01,308.89 700.74,308.89 698.91,310.22 698.21,312.38 698.91,314.53 
	700.74,315.86 703.01,315.86 704.84,314.53 705.54,312.38 "/>
<polygon class="st15" points="671.79,230.63 671.09,228.47 669.26,227.14 666.99,227.14 665.16,228.47 664.46,230.63 665.16,232.78 
	666.99,234.11 669.26,234.11 671.09,232.78 671.79,230.63 "/>
<polygon class="st15" points="548.04,460.88 547.34,458.72 545.51,457.39 543.24,457.39 541.41,458.72 540.71,460.88 541.41,463.03 
	543.24,464.36 545.51,464.36 547.34,463.03 548.04,460.88 "/>
<polygon class="st15" points="506.04,526.13 505.34,523.97 503.51,522.64 501.24,522.64 499.41,523.97 498.71,526.13 499.41,528.28 
	501.24,529.61 503.51,529.61 505.34,528.28 506.04,526.13 "/>
<polygon class="st15" points="705.54,486.38 704.84,484.22 703.01,482.89 700.74,482.89 698.91,484.22 698.21,486.38 698.91,488.53 
	700.74,489.86 703.01,489.86 704.84,488.53 705.54,486.38 "/>
<polygon class="st15" points="671.79,568.13 671.09,565.97 669.26,564.64 666.99,564.64 665.16,565.97 664.46,568.13 665.16,570.28 
	666.99,571.61 669.26,571.61 671.09,570.28 671.79,568.13 "/>
<polygon class="st15" points="548.04,337.88 547.34,335.72 545.51,334.39 543.24,334.39 541.41,335.72 540.71,337.88 541.41,340.03 
	543.24,341.36 545.51,341.36 547.34,340.03 548.04,337.88 "/>
<polygon class="st15" points="506.04,272.63 505.34,270.47 503.51,269.14 501.24,269.14 499.41,270.47 498.71,272.63 499.41,274.78 
	501.24,276.11 503.51,276.11 505.34,274.78 506.04,272.63 "/>
<g>
	<linearGradient id="SVGID_1_" gradientUnits="userSpaceOnUse" x1="375.5467" y1="399.3752" x2="521.3334" y2="399.3752">
		<stop  offset="0" style="stop-color:#FFFFFF"/>
		<stop  offset="1" style="stop-color:#000000"/>
	</linearGradient>
	<line class="st16" x1="375.55" y1="399.38" x2="521.33" y2="399.38"/>
	<g>
		<line class="st17" x1="375.55" y1="399.38" x2="379.55" y2="399.38"/>
		<line class="st18" x1="387.65" y1="399.38" x2="513.28" y2="399.38"/>
		<line class="st17" x1="517.33" y1="399.38" x2="521.33" y2="399.38"/>
	</g>
</g>
<g>
	<linearGradient id="SVGID_2_" gradientUnits="userSpaceOnUse" x1="375.5068" y1="327.1419" x2="520" y2="327.1419">
		<stop  offset="0" style="stop-color:#FFFFFF"/>
		<stop  offset="1" style="stop-color:#000000"/>
	</linearGradient>
	<line class="st19" x1="375.51" y1="398.95" x2="520" y2="255.33"/>
	<g>
		<line class="st17" x1="375.51" y1="398.95" x2="378.34" y2="396.13"/>
		<line class="st20" x1="383.9" y1="390.61" x2="514.39" y2="260.91"/>
		<line class="st17" x1="517.16" y1="258.15" x2="520" y2="255.33"/>
	</g>
</g>
<path class="st17" d="M407.66,367c11.18,1.57,18.39,15.86,16.13,31.95"/>
<text transform="matrix(1.2001 0 0 1 425.9302 379.8027)" class="st21 st22 st23">α</text>
<polygon class="st2" points="107.67,392.95 105.72,386.94 100.62,383.23 94.31,383.23 89.2,386.94 87.25,392.95 89.2,398.96 
	94.31,402.67 100.62,402.67 105.72,398.96 107.67,392.95 "/>
<polygon class="st2" points="969.67,71.95 967.72,65.94 962.62,62.23 956.31,62.23 951.2,65.94 949.25,71.95 951.2,77.96 
	956.31,81.67 962.62,81.67 967.72,77.96 969.67,71.95 "/>
<polygon class="st2" points="971.67,730.95 969.72,724.94 964.62,721.23 958.31,721.23 953.2,724.94 951.25,730.95 953.2,736.96 
	958.31,740.67 964.62,740.67 969.72,736.96 971.67,730.95 "/>
<text transform="matrix(1.0098 0 0 1 525.6001 407.4375)" class="st21 st22 st24">°</text>
<text transform="matrix(1.0098 0 0 1 519.0332 254.4375)" class="st21 st22 st24">5°</text>
</svg>
